<?xml version="1.0" standalone="no"?>
<!DOCTYPE svg PUBLIC "-//W3C//DTD SVG 20010904//EN"
 "http://www.w3.org/TR/2001/REC-SVG-20010904/DTD/svg10.dtd">
<svg version="1.0" xmlns="http://www.w3.org/2000/svg"
 width="800.000000pt" height="800.000000pt" viewBox="0 0 800.000000 800.000000"
 preserveAspectRatio="xMidYMid meet">
<metadata>
Created by potrace 1.11, written by Peter Selinger 2001-2013
</metadata>
<g transform="translate(0.000000,800.000000) scale(0.100000,-0.100000)"
fill="#000000" stroke="none">
<path d="M3971 6454 c18 -20 15 -49 -4 -37 -6 3 4 -18 22 -48 55 -92 110 -211
126 -274 19 -74 19 -213 1 -283 -22 -83 -69 -174 -178 -346 -116 -184 -141
-235 -162 -339 -20 -93 -20 -142 -2 -229 26 -122 103 -244 183 -290 l30 -17 1
27 c3 79 1 198 -4 288 -7 116 7 182 58 274 38 67 148 213 256 339 82 96 125
169 136 231 5 30 3 28 -13 -14 -27 -65 -42 -80 -31 -30 5 22 12 77 16 123 6
76 8 81 20 60 l13 -24 1 22 c0 27 -70 163 -135 262 -85 129 -252 288 -332 318
-17 6 -17 5 -2 -13z m299 -937 c-24 -23 -37 -33 -30 -22 25 36 63 75 69 70 3
-3 -15 -25 -39 -48z m-483 -519 c-3 -8 -6 -5 -6 6 -1 11 2 17 5 13 3 -3 4 -12
1 -19z"/>
<path d="M4442 5830 c0 -14 2 -19 5 -12 2 6 2 18 0 25 -3 6 -5 1 -5 -13z"/>
<path d="M5361 5760 c-1 -33 -8 -65 -17 -78 -17 -24 -21 -84 -10 -142 6 -32 5
-33 -5 -10 -6 14 -15 39 -19 55 l-8 30 -1 -30 c0 -16 20 -79 45 -140 25 -60
55 -138 66 -173 19 -59 19 -65 4 -105 -9 -23 -47 -78 -86 -122 -111 -127 -150
-228 -117 -305 14 -34 15 -33 10 40 -6 88 8 126 77 200 l41 45 -32 -50 c-41
-62 -78 -151 -79 -188 0 -40 37 -55 77 -30 49 30 274 283 299 338 44 93 34
138 -74 310 -80 128 -147 278 -161 360 l-9 50 -1 -55z"/>
<path d="M2465 5698 l-37 -43 16 35 17 35 -26 -30 c-56 -66 -105 -198 -105
-287 0 -58 30 -156 61 -200 13 -18 50 -62 82 -97 70 -77 100 -133 128 -238 32
-122 60 -204 68 -199 4 3 13 1 21 -4 11 -7 12 -13 1 -37 l-13 -28 22 20 c60
55 120 247 120 388 0 172 -64 276 -254 410 -52 36 -72 58 -88 94 -38 87 -33
146 20 206 8 9 13 17 9 17 -3 0 -22 -19 -42 -42z m294 -496 c10 -20 21 -53 25
-72 4 -23 -2 -13 -18 27 -13 35 -30 70 -37 80 -10 12 -10 15 -1 9 7 -4 21 -24
31 -44z"/>
<path d="M5305 5693 c-4 -16 -8 -37 -10 -47 -2 -10 0 -15 4 -10 9 10 23 84 16
84 -3 0 -7 -12 -10 -27z"/>
<path d="M3090 4193 c-25 -2 -90 -8 -145 -14 -55 -5 -181 -14 -280 -19 -99 -5
-216 -16 -260 -25 -184 -39 -405 -110 -480 -155 -63 -38 -205 -89 -335 -119
-413 -99 -658 -197 -915 -370 -275 -185 -313 -220 -372 -346 -24 -52 -28 -72
-28 -150 1 -90 1 -90 55 -190 29 -55 73 -123 97 -151 24 -28 43 -53 43 -56 0
-11 181 -182 237 -225 32 -24 81 -56 108 -70 28 -14 83 -48 124 -76 41 -27
122 -72 180 -99 58 -27 129 -60 156 -73 116 -56 274 -118 499 -194 321 -109
456 -143 916 -230 543 -102 907 -129 1507 -111 354 10 434 17 562 49 42 11
146 27 231 35 233 24 328 37 400 53 36 8 75 16 88 18 13 2 28 8 35 13 13 10
132 28 247 37 97 7 289 53 410 98 52 19 142 52 199 73 98 36 137 63 94 65 -10
0 37 22 104 48 68 27 138 58 156 69 19 10 51 25 73 32 61 19 227 104 367 188
105 63 145 93 216 167 120 125 191 212 191 236 0 11 -5 17 -10 14 -6 -4 11 24
37 62 45 63 48 73 51 140 10 181 -116 383 -342 552 -207 154 -318 217 -516
289 -401 146 -687 218 -1230 313 -36 6 -87 17 -115 25 -47 12 -132 23 -495 59
-213 22 -577 34 -710 24 -137 -11 -562 -4 -640 9 -51 9 -410 13 -510 5z"/>
</g>
</svg>
