<?xml version="1.0" standalone="no"?>
<!DOCTYPE svg PUBLIC "-//W3C//DTD SVG 20010904//EN"
 "http://www.w3.org/TR/2001/REC-SVG-20010904/DTD/svg10.dtd">
<svg version="1.0" xmlns="http://www.w3.org/2000/svg"
 width="586.000000pt" height="586.000000pt" viewBox="0 0 586.000000 586.000000"
 preserveAspectRatio="xMidYMid meet">
<metadata>
Created by potrace 1.11, written by Peter Selinger 2001-2013
</metadata>
<g transform="translate(0.000000,586.000000) scale(0.100000,-0.100000)"
fill="#000000" stroke="none">
<path d="M8 4013 c-2 -10 -2 -29 2 -43 l5 -25 130 0 130 0 3 -1000 2 -1000
-134 1 -134 1 -4 -26 c-9 -66 -52 -61 536 -61 l533 0 -1 43 -2 42 -169 1 -169
0 0 449 0 449 169 2 c208 2 300 9 430 36 388 79 614 288 615 568 0 275 -224
502 -555 564 -66 12 -197 15 -731 16 -615 0 -652 -1 -656 -17z m1194 -87 c70
-20 112 -54 143 -115 75 -149 78 -532 6 -695 -36 -83 -122 -151 -217 -171 -56
-12 -386 -18 -393 -7 -4 8 -7 948 -2 997 2 19 395 11 463 -9z"/>
<path d="M3290 3987 l0 -42 155 0 c98 0 155 -3 156 -10 1 -5 2 -454 3 -997 1
-872 -1 -988 -14 -989 -8 0 -79 -1 -157 -2 l-143 -1 0 -43 0 -43 380 0 380 0
0 43 0 44 -147 -2 c-82 0 -154 1 -160 3 -10 3 -13 201 -13 945 0 555 4 937 9
932 5 -6 43 -120 84 -255 42 -135 141 -459 222 -720 81 -261 184 -596 229
-745 l83 -269 57 -2 c67 -2 63 -7 106 137 18 57 41 133 52 169 11 36 24 79 28
95 5 17 20 66 34 110 85 276 124 402 206 670 51 165 127 414 169 552 43 139
80 256 84 260 4 3 7 -419 7 -938 l0 -944 -152 0 -152 0 -2 -42 -1 -43 532 0
532 0 -1 43 -1 42 -135 1 c-74 1 -142 2 -150 3 -13 1 -15 117 -13 989 1 543 2
992 2 997 1 7 56 10 148 10 l148 0 0 40 0 40 -417 3 -416 2 -21 -62 c-11 -35
-77 -247 -146 -473 -195 -632 -236 -759 -244 -768 -4 -4 -44 113 -90 260 -45
148 -102 331 -126 408 -24 77 -73 237 -109 355 -37 118 -71 230 -77 248 l-11
32 -454 0 -454 0 0 -43z"/>
<path d="M2475 3180 c-291 -60 -517 -278 -573 -553 -13 -62 -6 -220 12 -281
93 -311 382 -527 696 -521 97 2 134 9 205 38 156 63 278 196 336 365 10 30 19
56 19 57 0 2 -21 2 -46 2 -46 0 -47 -1 -73 -56 -106 -222 -244 -316 -446 -306
-207 9 -268 133 -267 550 0 378 60 566 197 612 39 13 136 9 174 -6 32 -14 54
-54 47 -89 -3 -13 -18 -40 -34 -60 -35 -45 -44 -69 -44 -127 0 -108 87 -180
212 -178 145 2 232 97 217 239 -14 138 -144 255 -333 302 -76 19 -235 26 -299
12z"/>
</g>
</svg>
